HIERARCHY
ROOT Hips
{
	OFFSET 0.000000 0.000000 0.000000
	CHANNELS 6 Xposition Yposition Zposition Xrotation Yrotation Zrotation
	JOINT LeftUpLeg_virtual
	{
		OFFSET 0.000000 0.000000 0.000000
		CHANNELS 3 Xrotation Yrotation Zrotation
		JOINT LeftUpLeg
		{
			OFFSET 10.205400 -3.823500 0.155100
			CHANNELS 3 Xrotation Yrotation Zrotation
			JOINT LeftLeg
			{
				OFFSET 0.708757 -12.982077 0.567790
				CHANNELS 3 Xrotation Yrotation Zrotation
				JOINT LeftFoot
				{
					OFFSET -0.708756 -10.717838 -2.184338
					CHANNELS 3 Xrotation Yrotation Zrotation
					JOINT LeftToeBase
					{
						OFFSET 0.108149 -7.191104 7.560241
						CHANNELS 3 Xrotation Yrotation Zrotation
						JOINT LeftToe_End
						{
							OFFSET 0.070230 0.081724 4.490308
							CHANNELS 3 Xrotation Yrotation Zrotation
							End Site
							{
								OFFSET 0 0 0
							}
						}
					}
				}
			}
		}
	}
	JOINT RightUpLeg_virtual
	{
		OFFSET 0.000000 0.000000 0.000000
		CHANNELS 3 Xrotation Yrotation Zrotation
		JOINT RightUpLeg
		{
			OFFSET -10.205400 -3.823500 0.005500
			CHANNELS 3 Xrotation Yrotation Zrotation
			JOINT RightLeg
			{
				OFFSET -0.708756 -12.982134 0.610632
				CHANNELS 3 Xrotation Yrotation Zrotation
				JOINT RightFoot
				{
					OFFSET 0.708754 -10.717769 -1.945823
					CHANNELS 3 Xrotation Yrotation Zrotation
					JOINT RightToeBase
					{
						OFFSET -0.108140 -7.191069 7.372968
						CHANNELS 3 Xrotation Yrotation Zrotation
						JOINT RightToe_End
						{
							OFFSET -0.070227 0.081735 4.479403
							CHANNELS 3 Xrotation Yrotation Zrotation
							End Site
							{
								OFFSET 0 0 0
							}
						}
					}
				}
			}
		}
	}
	JOINT Spine_virtual
	{
		OFFSET 0.000000 0.000000 0.000000
		CHANNELS 3 Xrotation Yrotation Zrotation
		JOINT Spine
		{
			OFFSET 0.000000 6.876099 0.125700
			CHANNELS 3 Xrotation Yrotation Zrotation
			JOINT Spine1
			{
				OFFSET 0.000000 5.730043 0.104720
				CHANNELS 3 Xrotation Yrotation Zrotation
				JOINT Spine1_split
				{
					OFFSET 0.000000 5.730043 0.104720
					CHANNELS 3 Xrotation Yrotation Zrotation
					JOINT Spine2
					{
						OFFSET 0.000000 5.730043 0.104720
						CHANNELS 3 Xrotation Yrotation Zrotation
						JOINT Neck_virtual
						{
							OFFSET 0.000000 0.000000 0.000000
							CHANNELS 3 Xrotation Yrotation Zrotation
							JOINT Neck
							{
								OFFSET 0.000000 10.314075 0.188496
								CHANNELS 3 Xrotation Yrotation Zrotation
								JOINT Head
								{
									OFFSET 0.000000 7.643700 -2.377400
									CHANNELS 3 Xrotation Yrotation Zrotation
									JOINT HeadTop_End
									{
										OFFSET 0.000000 43.788605 -13.619600
										CHANNELS 3 Xrotation Yrotation Zrotation
										End Site
										{
											OFFSET 0 0 0
										}
									}
								}
							}
						}
						JOINT LeftShoulder_virtual
						{
							OFFSET 0.000000 0.000000 0.000000
							CHANNELS 3 Xrotation Yrotation Zrotation
							JOINT LeftShoulder
							{
								OFFSET 2.196100 4.412489 0.087492
								CHANNELS 3 Xrotation Yrotation Zrotation
								JOINT LeftShoulder_split
								{
									OFFSET 2.196100 4.412489 0.087492
									CHANNELS 3 Xrotation Yrotation Zrotation
									JOINT LeftArm
									{
										OFFSET 8.771219 -2.981674 -0.026999
										CHANNELS 3 Xrotation Yrotation Zrotation
										JOINT LeftForeArm
										{
											OFFSET 8.512804 0.000000 -0.000000
											CHANNELS 3 Xrotation Yrotation Zrotation
											JOINT LeftHand
											{
												OFFSET 18.484802 0.000000 -0.000000
												CHANNELS 3 Xrotation Yrotation Zrotation
												End Site
												{
													OFFSET 0 0 0
												}
											}
										}
									}
								}
							}
						}
						JOINT RightShoulder_virtual
						{
							OFFSET 0.000000 0.000000 0.000000
							CHANNELS 3 Xrotation Yrotation Zrotation
							JOINT RightShoulder
							{
								OFFSET -2.196100 4.412496 0.070690
								CHANNELS 3 Xrotation Yrotation Zrotation
								JOINT RightShoulder_split
								{
									OFFSET -2.196100 4.412496 0.070690
									CHANNELS 3 Xrotation Yrotation Zrotation
									JOINT RightArm
									{
										OFFSET -8.771282 -2.981682 -0.094208
										CHANNELS 3 Xrotation Yrotation Zrotation
										JOINT RightForeArm
										{
											OFFSET -8.494598 0.000000 0.000000
											CHANNELS 3 Xrotation Yrotation Zrotation
											JOINT RightHand
											{
												OFFSET -18.483803 0.000000 0.000001
												CHANNELS 3 Xrotation Yrotation Zrotation
												End Site
												{
													OFFSET 0 0 0
												}
											}
										}
									}
								}
							}
						}
					}
				}
			}
		}
	}
}
MOTION
Frames: 4
Frame Time: 0.03333333
-0.559349 32.207115 -0.651896 0.000000 0.000000 0.000000 -24.358874 -10.303300 -2.192898 14.299775 21.545128 8.391427 37.767138 11.915536 -10.523017 -30.306475 26.223664 12.605603 -2.097396 -0.618683 -1.891671 0.000000 0.000000 0.000000 -23.002021 -11.000839 -2.489288 29.272241 -11.211989 -1.726450 29.792110 -9.088897 -0.463502 -34.450330 -29.028225 1.074769 -6.772635 -1.807624 0.232896 0.000000 0.000000 0.000000 -22.855481 -9.185244 -1.960653 9.700574 -4.390014 -0.412288 3.289516 -1.066741 0.010155 0.649430 1.394547 -0.056582 0.000000 0.000000 0.000000 3.445308 -2.114912 0.137180 2.388324 2.272132 -4.674967 -4.533921 -0.896181 3.744406 0.000000 0.000000 0.000000 3.972591 -2.462835 0.257599 1.057983 -15.402322 -11.179835 0.742451 -0.732541 -0.311554 -20.475406 0.006391 -38.783228 2.809897 -67.105509 2.494286 0.000000 0.000000 0.000000 3.328155 -2.147844 0.242223 -0.266834 12.950880 16.571009 2.122603 3.850424 -1.745439 -10.276950 -6.569615 62.288552 -0.468740 42.669807 1.600063 0.000000 0.000000 0.000000 
-0.639818 32.052654 -0.646376 0.000000 0.000000 0.000000 -24.514761 -10.908149 -2.495833 13.424902 21.488088 9.643648 38.914026 11.276279 -10.637505 -29.376452 25.556924 11.959483 -1.686545 -0.335645 -2.683176 0.000000 0.000000 0.000000 -22.985158 -10.549112 -2.545569 29.180682 -11.399295 -1.396277 29.790113 -9.313619 -0.414955 -35.026911 -28.870909 0.613320 -6.686692 -1.744749 0.087407 0.000000 0.000000 0.000000 -23.125764 -9.430939 -2.374952 10.050319 -4.618445 -0.436023 3.252216 -1.135307 0.020094 0.677768 0.996352 0.055308 0.000000 0.000000 0.000000 3.536233 -2.135821 0.149229 2.374003 2.189111 -4.506840 -4.602032 -1.018914 3.892636 0.000000 0.000000 0.000000 3.948811 -2.477337 0.278218 1.035063 -15.400888 -11.205873 0.694476 -0.909040 -0.176705 -20.627682 -0.191571 -38.986279 2.927354 -67.308721 2.626583 0.000000 0.000000 0.000000 3.284565 -2.190803 0.254791 -0.281513 12.907166 16.599351 2.202475 3.304018 -1.646839 -10.490075 -6.676412 62.272563 -0.467092 42.692579 1.603226 0.000000 0.000000 0.000000 
-0.824126 31.851303 -0.568924 0.000000 0.000000 0.000000 -24.620631 -11.846513 -3.347887 10.925160 21.071726 12.155056 41.643161 10.060866 -10.679017 -27.759639 23.872739 10.827607 -1.136026 -0.051412 -3.740454 0.000000 0.000000 0.000000 -23.106947 -10.565804 -3.199065 29.419578 -11.760239 -0.705197 29.599782 -9.264127 -0.164021 -36.056360 -28.287773 -0.133210 -5.936570 -1.642763 -0.149903 0.000000 0.000000 0.000000 -23.272842 -10.323892 -3.367435 10.348011 -4.822131 -0.243357 3.208445 -1.214672 0.033183 0.681808 0.769441 0.326528 0.000000 0.000000 0.000000 3.654653 -2.159754 0.134474 2.261362 2.035385 -4.208458 -4.828300 -1.343498 4.259485 0.000000 0.000000 0.000000 3.940614 -2.493573 0.286412 1.011569 -15.295667 -11.179910 0.573875 -1.024883 -0.172741 -21.122188 -0.268888 -39.167259 3.082349 -67.330680 2.823995 0.000000 0.000000 0.000000 3.236064 -2.267578 0.233207 -0.314652 12.839612 16.630460 2.192331 2.978670 -1.529302 -10.758203 -6.762380 62.197540 -0.462967 42.662779 1.641011 0.000000 0.000000 0.000000 
-0.986559 31.668552 -0.466673 0.000000 0.000000 0.000000 -24.688620 -12.909744 -4.516131 7.395223 20.086294 15.152857 44.884769 8.431241 -10.463499 -25.945642 21.204290 9.081265 -0.853242 0.169883 -4.578980 0.000000 0.000000 0.000000 -23.330914 -11.275654 -4.292718 29.858305 -12.170332 0.001926 29.259919 -8.749483 0.198688 -36.912084 -27.422513 -0.739878 -5.019179 -1.516969 -0.418941 0.000000 0.000000 0.000000 -23.294702 -11.824148 -4.686614 10.539398 -4.948542 0.123631 3.182690 -1.264948 0.039368 0.848597 0.744008 0.489316 0.000000 0.000000 0.000000 3.752836 -2.180160 0.099377 2.094165 1.856312 -3.883990 -5.170912 -1.776712 4.696084 0.000000 0.000000 0.000000 3.939203 -2.510092 0.280646 0.983148 -15.144017 -11.113665 0.350543 -1.088707 -0.317514 -21.722703 -0.174191 -39.248968 3.183623 -67.132611 2.984712 0.000000 0.000000 0.000000 3.199581 -2.350632 0.194382 -0.342899 12.785145 16.658223 2.088397 2.903500 -1.516985 -10.966047 -6.844410 62.077602 -0.453069 42.556207 1.701664 0.000000 0.000000 0.000000 
